PathFileType	4	(X/Y/Z)	pose_F01_0-83.trc
DataRate	CameraRate	NumFrames	NumMarkers	Units	OrigDataRate	OrigDataStartFrame	OrigNumFrames
30	30	7	21	m	30	23	83
Frame#	Time	CHip			RHip			RKnee			RAnkle			RBigToe			RSmallToe			RHeel			LHip			LKnee			LAnkle			LBigToe			LSmallToe			LHeel			Neck			Nose			RShoulder			RElbow			RWrist			LShoulder			LElbow			LWrist			
		X1	Y1	Z1	X2	Y2	Z2	X3	Y3	Z3	X4	Y4	Z4	X5	Y5	Z5	X6	Y6	Z6	X7	Y7	Z7	X8	Y8	Z8	X9	Y9	Z9	X10	Y10	Z10	X11	Y11	Z11	X12	Y12	Z12	X13	Y13	Z13	X14	Y14	Z14	X15	Y15	Z15	X16	Y16	Z16	X17	Y17	Z17	X18	Y18	Z18	X19	Y19	Z19	X20	Y20	Z20	X21	Y21	Z21	
23	0.7666666666666667	-0.21317087729917333	1.8352752871341826	-0.46958958188783445	-0.22650949097245157	1.8310482283754883	-0.40869001501680063	-0.2159006140860593	1.7189264769233639	-0.4393276187029536													-0.19924667395911883	1.8367807655170043	-0.5421575904141922	-0.200636074446592	1.712318649874993	-0.5622082286188187	-0.1875794692190711	1.5860376629564468	-0.6280294811707495	-0.19819881977634726	1.5597907727937017	-0.6866472069754849	-0.18739676821028026	1.5675839542391545	-0.70230901556899	-0.18359574626401343	1.5697061233290164	-0.6091890023763298	-0.20879771824049284	1.9757073303731048	-0.4845160996815295	-0.21907056498777694	2.048664025318344	-0.4922539071929079	-0.22769586288770252	1.974002573908335	-0.3922355955053665	-0.2437670214173683	1.9054765650982914	-0.35371939412891523	-0.24292424320749084	1.9412159351982285	-0.44096340440867005	-1.6187085192822352	1.8866737117591879	0.9853392877053254	-0.1797912605081188	1.9002598229535355	-0.592228810307833	-0.17819878973308284	1.8322617638861234	-0.5997032170504861
24	0.8	-0.21403840673788163	1.8337808161816909	-0.4815611281322532	-0.22472314805491894	1.8315420565065383	-0.4110651104452254	-0.2159006140860593	1.7189264769233639	-0.4393276187029536													-0.19996305529171698	1.8351666042961123	-0.5453195747186237	-0.19845664114784128	1.7146752180977536	-0.564821022692712	-0.18757884266583494	1.5858870100548619	-0.6279813144462371	-0.19604518388379244	1.5571739747231004	-0.6885858175006874	-0.18540935952461285	1.5661174877580526	-0.7039259640228358	-0.18456088077995156	1.5686257655817981	-0.6079081047078271	-0.2107215002481013	1.9758066541784993	-0.4825145330440964	-0.22016623587669765	2.050353929670965	-0.5044949077942609	-0.2296919293164305	1.9729732092190566	-0.39028904281516347	-0.24529648649541153	1.9003877113399479	-0.34198161681698985	-0.24114980140348208	1.9336084986603674	-0.44233420413975105	-1.6196601846261862	1.88685576631173	0.9859855611614818	-0.18265520946182948	1.9009121908466282	-0.5932466668364859	-0.17871672174930056	1.8322858974366256	-0.602869328979862
25	0.8333333333333334	-0.214942654556411	1.833599516632543	-0.4848845690408158	-0.2258325603721353	1.8304782059627498	-0.414138406699947	-0.2159006140860593	1.7189264769233639	-0.4393276187029536													-0.20010711663488806	1.8339927577172959	-0.5452805443114379	-0.19651318383188238	1.7128764433241495	-0.5668069862323142	-0.18784155197790436	1.5844314251704978	-0.6274757634660189	-0.19384350224654404	1.5545450770295886	-0.6903498354745516	-0.18473884901798648	1.5645044538628265	-0.7003405960129748	-0.18483388212040103	1.56966781245923	-0.6079282303567508	-0.20969069617775588	1.9764478628194264	-0.48794480144076335	-0.2220517922041237	2.0504171552904173	-0.5108093227722977	-0.22886435540543945	1.9734244779631294	-0.3956859810600363	-0.24682185534145845	1.8989058980370344	-0.3540487236138149	-0.24656414556505454	1.9300477773572586	-0.43227098736282976	-1.6083397282222793	1.8868418143064758	0.9672517622762905	-0.18218117286051894	1.9025904099086564	-0.6020006637270141	-0.18016431412034448	1.8363059667060353	-0.6062455253673534
26	0.8666666666666667	-0.21358751678364882	1.8352576077910387	-0.49102825949344975	-0.22662506959900278	1.836019848288873	-0.42706765693923054	-0.2159006140860593	1.7189264769233639	-0.4393276187029536													-0.19862839781351807	1.8391853936808247	-0.5515015194082197	-0.1950669480815911	1.7138937040404476	-0.5726473340587225	-0.18806630538823893	1.5866173205277325	-0.6317538159857407	-0.19612129827391014	1.5544012551726027	-0.6881361183950374	-0.1843129689642354	1.56439339549846	-0.7010951920295619	-0.18476992199239425	1.5704429467610415	-0.6123932891143723	-0.21158807167631927	1.9771735168146025	-0.5029058274612368	-0.22086813386588686	2.0506442983052526	-0.5156741767265145	-0.2318695614431688	1.9762959056067255	-0.4059386736609338	-0.2462302715561712	1.8980402884347711	-0.3594625206005791	-0.2600633786160038	1.928294986718184	-0.4400093043239623	-0.18653145775716815	1.9793893925483295	-0.5942708322516943	-0.17895232764186955	1.9026093979353602	-0.6099369886421506	-0.18079282052214296	1.8338102847314002	-0.6301637245859728
27	0.9	-0.21366633716524996	1.8351958490138904	-0.4997117038568711	-0.22784570820209668	1.8332943707613967	-0.43917110586963604	-0.2159006140860593	1.7189264769233639	-0.4393276187029536													-0.20152304086045572	1.8361867827808873	-0.5696680163853777	-0.19509183246300607	1.7116097885353871	-0.5726005459903143	-0.18622604852441607	1.58539781752927	-0.6334456979639542	-0.1959163467598918	1.5533296061591735	-0.6886154653557318	-0.1854922909954426	1.563496688346559	-0.7036908810689972	-0.18382290719889416	1.5705619386735086	-0.6092980559423946	-1.7424881690253213	1.88809022149751	1.1809116221667975	-0.22354884582961154	2.0503595402900276	-0.5331882741141655	-0.23218109501299056	1.9762694858109242	-0.4232205132417928	-0.24966176831073772	1.9035219357611055	-0.3791322685147596	-0.24981729974484745	1.9319899804596414	-0.46006234123240275	-0.18619167239104545	1.9795270622072476	-0.6029513003614745	-0.17574557649570974	1.9029486739881865	-0.6176963757337762	-0.17907117544918583	1.83190873345275	-0.6323882680849657
28	0.9333333333333333	-0.21356917342577242	1.8373235501355816	-0.5174444296183038	-0.22488252950048448	1.8331528643662316	-0.4470759464999425	-0.2159006140860593	1.7189264769233639	-0.4393276187029536													-0.19891799415318448	1.8371894829162925	-0.581078283423452	-0.1957752779106225	1.7148547297417949	-0.585081318795801	-0.1857931709591498	1.586094322838339	-0.6340458642061064	-0.19908620826030493	1.5537884373909625	-0.6890950046889709	-0.18541902291365261	1.5628292414117588	-0.7036383726473309	-0.18120058275007392	1.570958501207817	-0.6120683670274231	-1.733456175352941	1.8903229536648039	1.1644422259160094	-0.21948693226101504	2.048915581291835	-0.545640841669355	-0.22930006823518304	1.9768753689807161	-0.4310488732055073	-0.24712760307773038	1.9055119717441857	-0.3961923857043079	-0.2512567436522982	1.9460271199018517	-0.4918846957742072	-0.18563210389653195	1.9821706061773838	-0.6114801626653544	-0.17772898431666795	1.9155393280480169	-0.635868206072255	-0.17881497039078503	1.8322346504366305	-0.6470971212710241
29	0.9666666666666667	-0.21381204928935127	1.8343901192087906	-0.526242637663589	-0.22736596191223135	1.8334592132646002	-0.4624589160072027	-0.2192184935394131	1.7148725782648226	-0.43934223599484445													-0.19406573860711523	1.837287237450986	-0.5910285583619602	-0.19529980006241468	1.7162219109993369	-0.5983853930493208	-0.18614263638713963	1.5852471305425306	-0.6335324991006286	-0.19487064316858924	1.5518302320029387	-0.6931956206373178	-0.1856706030726295	1.56172502330171	-0.7031480572949435	-0.18522261283067953	1.5703055188872321	-0.6119035396568779	-0.20899471082683835	1.981276801053499	-0.5403364704550285	-0.21810734411049762	2.050223281185678	-0.5593808453480064	-0.22946095600712688	1.9781953593393373	-0.4484401730419375	-0.24840626159848395	1.9080034804911423	-0.4173175023337458	-0.2457027702337314	1.949084693510746	-0.5107759492909085	-0.1849949098765369	1.9818961617847046	-0.6288849463551214	-0.1791483337831792	1.9089555667731304	-0.6515153109294842	-0.17855876533238424	1.8325605674205108	-0.6618059744570824
